PathFileType	4	(X/Y/Z)	D:\Long Term Storage\D'Arcy Smith\Coord9.trc
DataRate	CameraRate	NumFrames	NumMarkers	Units	OrigDataRate	OrigDataStartFrame	OrigNumFrames
120.00	120.00	      48	4	mm	120.00	3603	      4803
Frame#	Time	M1			M2			M3			M4			
		X1	Y1	Z1	X2	Y2	Z2	X3	Y3	Z3	X4	Y4	Z4	

3603	30.017	1048.61755	322.39462	551.37079	1625.70020	416.42920	275.33313							
3604	30.025	1050.81641	322.77386	548.90497	1627.82288	411.18024	281.90567							
3605	30.033	1052.65015	323.14484	544.04517	1629.68958	405.02298	289.27744							
3606	30.042	1054.78003	323.49033	537.21613	1631.87000	398.28619	297.44821							
3607	30.050	1056.80542	323.78625	528.80756	1633.83655	391.31329	306.06979							
3608	30.058	1058.26550	324.56943	518.67542	1635.51135	383.72794	315.51633							
3609	30.067	1059.72180	326.23523	506.90347	1637.40283	375.94699	325.82578							
3610	30.075	1061.31360	328.09833	495.31122	1639.30664	368.01974	337.16907							
3611	30.083	1062.75818	330.61945	483.02817	1641.06213	359.72781	349.69489							
3612	30.092	1063.90698	333.56522	470.45651	1643.35156	352.28214	363.65518							
3613	30.100	1064.89893	337.30225	457.78885	1645.60840	345.17816	379.12573							
3614	30.108	1066.21594	341.19556	445.59906	1647.70874	338.63657	395.83652							
3615	30.117	1066.82129	346.16455	433.11682	1650.12524	333.17230	413.83093							
3616	30.125	1067.57385	351.75787	420.99628	1652.15247	328.74680	432.85852							
3617	30.133	1067.86658	357.57138	408.93726	1654.33020	325.74011	452.70224							
3618	30.142	1068.24609	363.58490	396.93954	1656.45435	324.07983	473.08920							
3619	30.150	1068.84985	369.95230	385.85919	1658.20142	323.67078	493.52213							
3620	30.158	1069.26587	376.76950	374.73892	1659.80493	324.67181	513.86987							
3621	30.167	1069.26831	383.77557	364.05505	1661.10156	326.92990	533.45837							
3622	30.175	1069.07971	390.96539	353.75247	1662.06128	330.32538	552.46277							
3623	30.183	1068.89368	398.17780	343.93155	1662.94556	334.43698	570.41925							
3624	30.192	1068.46667	405.46759	334.51654	1663.52380	339.14194	587.22241							
3625	30.200	1067.87280	412.82687	325.63101	1664.16199	344.51166	602.80200							
3626	30.208	1067.21655	419.94391	317.11026	1664.67041	350.16623	617.06323							
3627	30.217	1065.99451	426.87332	309.19992	1665.04443	356.08310	629.86951							
3628	30.225	1064.76636	433.61862	301.62830	1665.61292	362.03568	641.05310							
3629	30.233	1063.23340	440.04733	294.51300	1666.09546	367.76605	650.77448							
3630	30.242	1061.46338	446.03412	288.00562	1666.69922	373.00757	658.85126							
3631	30.250	1059.83032	451.34387	281.83771	1667.21509	377.54150	665.43005							
3632	30.258	1057.60767	456.43582	276.27435	1667.93909	381.29697	670.79779							
3633	30.267	1055.59351	460.92645	271.35370	1668.85144	384.29794	674.76270							
3634	30.275	1053.42371	464.63629	265.86649	1669.90698	386.57132	677.37225							
3635	30.283	1051.38171	467.64224	261.86835	1670.80090	388.51389	678.94940							
3636	30.292	1048.97241	470.30566	257.98135	1672.18127	389.17212	679.23242							
3637	30.300	1046.85791	471.61179	254.85284	1673.29590	389.44656	678.43378							
3638	30.308	1044.70947	472.24661	252.02354	1674.36047	389.02884	676.35449							
3639	30.317	1042.38086	471.33395	249.91780	1675.39063	387.79956	673.05896							
3640	30.325	1040.29797	469.63971	248.33098	1676.20276	386.22656	668.63092							
3641	30.333	1038.16858	466.92847	247.45982	1676.93579	383.77585	662.78876							
3642	30.342	1036.29553	463.14673	247.30972	1677.24719	380.89786	655.67065							
3643	30.350	1034.42493	458.14319	247.97549	1677.40283	377.76419	647.10907							
3644	30.358	1032.63708	452.14371	249.85121	1677.23657	373.85880	636.99652							
3645	30.367	1031.16797	444.97784	252.79369	1676.71619	370.03769	625.37103							
3646	30.375	1029.70850	436.87198	257.03870	1675.74402	366.08319	612.39008							
3647	30.383	1028.85645	427.33307	263.03476	1674.24365	362.13037	597.74359							
3648	30.392	1028.35815	417.21729	271.69058	1672.39221	358.35513	581.68951							
3649	30.400	1027.85437	406.48517	280.81512	1669.98889	354.99667	564.19592							
3650	30.408	1027.68994	395.43839	291.66693	1667.01880	352.12494	545.30774							
